REM MD5 19d2e070665e242cb5c55f0dcf6b8fb3
FILE "PlayStation Underground Number 2 (USA) (Disc 1).bin" BINARY
  TRACK 01 MODE2/2352
    INDEX 01 00:00:00
  TRACK 02 AUDIO
    INDEX 00 68:08:14
    INDEX 01 68:10:14
  TRACK 03 AUDIO
    INDEX 00 70:39:69
    INDEX 01 70:41:69
REM LEADOUT 70:55:64
